PathFileType	4	(X/Y/Z)	D:\TRACE\v60_Jaco2_6-2-23\JustArmDRS_Motion3_2-v60.trc
DataRate	CameraRate	NumFrames	NumMarkers	Units	OrigDataRate	OrigDataStartFrame	OrigNumFrames
100.00	100.00	      35	9	mm	100.00	2626	      7000
Frame#	Time	front left toe			Front right toe			aft left toe			aft right toe			Arm			FL body			FR body			AL Body			AR Body			
		X1	Y1	Z1	X2	Y2	Z2	X3	Y3	Z3	X4	Y4	Z4	X5	Y5	Z5	X6	Y6	Z6	X7	Y7	Z7	X8	Y8	Z8	X9	Y9	Z9	

2626	26.250	-170.58932	13.45332	-238.41469	227.58635	13.61626	-173.29214	-259.66934	26.22167	400.54938	148.88367	23.51790	415.61981	1.03251	1145.77881	-617.47864	-32.92812	589.96289	-347.79413	124.07922	590.85211	-326.32925	-152.97859	572.46265	588.95746	-2.01174	564.18762	608.57007	
2627	26.260	-170.62093	13.23137	-238.93462	227.47243	13.37643	-173.56410	-260.14285	26.84785	400.37402	148.69186	23.95759	415.30893	1.45819	1145.15503	-618.35406	-32.46430	589.35107	-348.09985	124.17258	590.40906	-326.78717	-152.89024	572.98730	588.52356	-1.79775	564.60876	608.16010	
2628	26.270	-170.62865	12.82683	-239.14583	227.49797	13.11716	-173.76677	-260.29218	27.15563	400.41116	148.73666	24.48679	415.03549	2.32174	1144.36218	-619.43036	-32.18100	589.07025	-348.53882	124.69653	589.54797	-326.99915	-152.91209	573.68488	588.01837	-1.71117	565.50775	607.84735	
2629	26.280	-170.73349	12.63101	-239.26320	227.56862	12.86450	-174.00233	-260.42154	27.72557	400.17419	148.95262	24.86570	414.90884	2.06760	1143.63696	-620.50647	-31.81929	588.71765	-348.80710	125.63602	588.75885	-327.37848	-152.94223	574.22437	587.64691	-1.55013	566.09027	607.64679	
2630	26.290	-170.78442	12.54085	-239.33360	227.47842	12.48643	-174.25978	-260.34686	28.13726	399.94693	149.20735	25.19247	414.81747	2.79070	1142.77856	-621.50732	-31.66204	588.33386	-349.18701	126.06998	589.04657	-327.60941	-152.68256	575.06573	587.26001	-1.60666	566.57880	607.20361	
2631	26.300	-170.70757	12.35825	-239.50508	227.61093	12.28287	-174.29730	-260.35999	28.60631	399.61237	149.21626	25.47010	414.63095	2.96620	1142.21582	-622.33960	-31.66636	588.34656	-349.68283	126.53713	588.76422	-327.98117	-152.58380	575.68201	587.19244	-1.37689	567.31720	606.94519	
2632	26.310	-170.64066	12.07958	-239.73454	227.54976	11.96319	-174.43513	-260.51050	29.19548	398.98300	149.09682	26.09594	414.51877	3.35754	1141.51123	-623.28558	-31.13207	587.39478	-349.59222	125.45004	588.47858	-328.30801	-152.47722	576.28180	586.79584	-1.33031	568.04315	606.60211	
2633	26.320	-170.59648	11.83647	-239.91310	227.73026	11.76589	-174.49554	-260.48703	30.19905	398.24579	149.01918	26.48211	414.50421	3.57509	1140.78796	-624.15881	-31.53117	587.35455	-350.35464	126.15044	587.90405	-328.41446	-152.20030	577.00458	586.49463	-1.05418	568.61499	606.36926	
2634	26.330	-170.56860	11.62247	-240.17867	227.77330	11.51959	-174.59943	-260.22177	29.64067	399.18387	148.86487	26.64236	414.31058	3.97423	1140.28284	-625.11200	-31.41373	586.99414	-350.85153	126.22442	587.54468	-328.81024	-152.46149	577.52026	586.11133	-0.86316	569.14911	606.06915	
2635	26.340	-170.56982	11.42231	-240.32837	227.90875	11.43155	-174.60735	-260.10437	29.65104	398.98080	149.00302	27.01820	414.14795	4.62629	1139.58008	-625.75812	-31.31232	586.77820	-351.17773	126.09612	587.12695	-329.18958	-152.32306	578.01624	585.54175	-0.84377	569.70807	605.75104	
2636	26.350	-170.55246	11.12714	-240.14288	227.91881	11.30377	-174.73024	-260.29211	30.04726	398.79858	149.06258	27.24008	414.06622	4.65863	1138.95251	-626.49768	-31.09651	586.43317	-351.58029	126.25701	586.84656	-329.46512	-152.09410	578.38922	585.34998	-0.98108	570.11871	605.38525	
2637	26.360	-170.67003	11.06318	-240.52072	228.02507	11.19069	-174.80905	-260.27698	30.48007	398.79248	149.19965	27.68689	413.97739	4.80644	1138.48145	-627.34784	-30.92505	586.08014	-351.90573	126.38869	586.45197	-329.72256	-152.01360	578.96826	585.10223	-0.78107	570.50146	605.11877	
2638	26.370	-170.64374	10.82586	-240.65157	228.05290	11.09187	-174.79883	-260.24014	30.85015	398.65207	149.30956	28.15232	413.92764	4.97091	1137.84851	-628.13885	-30.83273	585.55627	-352.09616	127.20693	585.82080	-330.01099	-152.28714	579.47748	584.94019	-0.84318	570.88843	604.74188	
2639	26.380	-170.55556	10.47931	-240.85190	228.14590	11.05391	-174.75420	-260.27267	31.21453	398.51764	149.14926	28.41234	413.76050	5.51281	1136.93750	-629.02393	-30.28922	584.73010	-351.96631	127.55283	585.44019	-330.37766	-152.19580	579.83496	584.55847	-0.73589	571.36237	604.36890	
2640	26.390	-170.58731	10.25827	-240.99030	228.17239	11.02621	-174.76230	-260.12711	31.60437	398.35052	148.87926	28.72945	413.56195	5.35984	1136.53992	-629.74701	-30.27313	584.44995	-352.50885	127.91911	585.20844	-330.71085	-152.27055	580.33984	584.05603	-0.91706	571.76886	604.11719	
2641	26.400	-170.67897	10.02175	-241.12048	228.13239	10.89016	-174.88359	-260.36810	31.78118	398.44287	148.73428	28.82666	413.46466	5.73709	1135.70215	-630.54895	-30.09335	584.17358	-352.73587	126.85355	584.83691	-331.05054	-152.15405	580.81226	583.53546	-0.83110	572.43518	603.79358	
2642	26.410	-170.78250	9.79358	-241.21098	227.93546	10.58622	-175.13989	-260.55975	32.18064	398.16510	148.71439	29.05111	413.33633	5.93590	1134.87549	-631.43604	-29.91301	583.75409	-353.11658	127.08192	584.29065	-331.23654	-152.38426	581.43787	583.18152	-0.85298	572.99286	603.55402	
2643	26.420	-170.98306	9.62819	-241.31329	227.73227	10.31183	-175.33780	-260.45615	32.46737	397.92105	148.70941	29.51366	413.03033	5.93020	1134.37183	-632.27722	-30.28969	583.62976	-353.72858	126.99079	583.85736	-331.44376	-152.29150	581.90179	583.00055	-0.82149	573.57684	603.23901	
2644	26.430	-170.93706	9.55244	-241.49722	227.49911	10.03067	-175.45583	-261.05869	32.85270	397.93399	148.58817	29.98161	412.95410	5.99499	1133.37976	-632.75519	-30.28161	583.18774	-353.96146	126.93996	583.45209	-331.82236	-152.15674	582.60431	582.83606	-0.99501	573.91388	603.06812	
2645	26.440	-171.10521	9.28728	-241.43280	227.16977	9.75277	-175.65184	-260.80643	33.15300	397.69669	148.41293	30.05497	412.88150	6.19785	1132.65771	-633.14807	-30.20584	582.80334	-354.25949	127.05556	583.27411	-332.00012	-152.16628	583.09930	582.73438	-0.88045	574.55487	602.74646	
2646	26.450	-171.27118	9.18000	-241.60828	227.09441	9.61369	-175.73647	-260.87375	33.35402	397.57870	148.20300	30.25383	412.73483	6.33663	1131.87708	-633.75958	-30.22644	582.57990	-354.49106	127.08707	582.86884	-332.39328	-152.47821	583.79633	582.42017	-0.85869	574.99799	602.45844	
2647	26.460	-171.32269	8.92690	-241.66434	226.95514	9.37178	-175.81059	-261.41275	33.64698	397.46216	148.16771	30.60804	412.54404	6.22469	1131.16772	-634.46173	-29.77931	581.77008	-354.33530	127.71693	582.11584	-332.48126	-152.43248	584.09924	582.08832	-0.70817	575.46844	602.31738	
2648	26.470	-171.53041	8.76514	-241.76878	226.70816	9.14195	-176.03601	-260.07217	33.07858	397.34772	148.09409	30.78839	412.52075	6.14125	1130.65137	-635.01971	-30.09869	581.71924	-354.94989	127.52399	581.86713	-332.81195	-152.32739	584.55231	581.55310	-2.20077	576.37183	602.37732	
2649	26.480	-171.72653	8.62838	-241.91060	226.62772	9.05925	-176.09100	-260.17816	33.27407	397.22232	148.08255	31.05218	412.59875	5.85525	1130.03870	-635.40955	-30.13311	581.44287	-355.23672	128.08795	581.61456	-333.08667	-152.33987	585.02985	581.23596	-2.52414	576.74536	602.05768	
2650	26.490	-171.91879	8.58154	-242.00095	226.53024	8.96671	-176.21378	-260.36813	33.56484	397.02353	147.95271	31.31996	412.55206	5.86465	1129.60303	-635.96320	-30.03379	581.14673	-355.64767	127.96151	581.38080	-333.42865	-152.52446	585.36542	581.08667	-2.65085	576.97296	601.75549	
2651	26.500	-172.07045	8.47237	-242.06941	226.50195	8.90378	-176.20885	-261.46466	34.39096	396.77377	147.99956	31.59446	412.57611	5.66649	1129.25671	-636.63782	-29.95852	580.88232	-355.93970	128.11079	581.25946	-333.63803	-152.59993	585.69574	580.92749	-2.72532	577.39404	601.57904	
2652	26.510	-172.15440	8.33678	-242.12601	226.25226	8.77852	-176.31497	-262.08047	34.61382	396.88049	147.68784	31.77144	412.49533	5.29467	1128.93701	-637.06567	-29.62716	580.46667	-355.76065	128.19389	580.99072	-333.87662	-152.60165	586.05334	580.62756	-2.74590	577.82239	601.36139	
2653	26.520	-172.24995	8.18326	-242.19739	226.11124	8.67374	-176.55162	-262.27335	34.81966	396.80728	147.47368	31.91428	412.32889	4.83246	1128.44556	-637.61920	-29.71356	580.25409	-355.92578	127.34877	580.61737	-333.96780	-152.65222	586.43439	580.46558	-2.81757	578.20679	601.14801	
2654	26.530	-172.41652	7.99464	-242.23865	225.89796	8.53647	-176.62320	-262.40912	35.04089	396.70712	147.29951	32.08693	412.15393	4.67843	1128.01880	-638.10016	-29.74251	580.07758	-356.09030	127.58755	580.23077	-334.11993	-152.67067	586.86896	580.30939	-2.77502	578.55676	601.01355	
2655	26.540	-172.55318	7.53244	-241.83411	225.80524	8.44597	-176.66599	-262.51556	35.17315	396.68597	146.83006	32.19075	411.93030	4.77419	1127.46692	-638.94775	-29.87242	579.83960	-356.39688	127.60690	580.03467	-334.33722	-152.94350	587.22455	580.02924	-2.99535	578.92914	600.64691	
2656	26.550	-172.68570	7.60221	-242.22220	225.70351	8.40476	-176.60831	-262.69748	35.42448	396.56268	146.64301	32.50055	411.81964	3.88998	1127.02649	-639.68140	-30.05799	579.89557	-356.76453	128.14911	579.83282	-334.66266	-153.10802	587.70734	579.82275	-2.87285	579.14905	600.51642	
2657	26.560	-172.86420	7.49902	-242.33078	225.62448	8.37750	-176.73018	-262.78394	35.70261	396.46136	146.73131	32.86121	411.85077	3.65388	1126.46460	-640.31268	-29.88791	579.34222	-356.46786	127.80082	579.62701	-334.82401	-153.21362	588.07336	579.71808	-3.08022	579.65332	600.32190	
2658	26.570	-173.05394	7.37670	-242.38844	225.55835	8.27915	-176.64847	-262.87415	35.86005	396.36389	146.71689	33.11745	411.81091	3.41601	1125.80603	-641.29688	-30.55610	579.29218	-357.11282	127.68994	579.44208	-334.93658	-153.16197	588.51172	579.60535	-3.21225	580.17090	600.24396	
2659	26.580	-173.17891	7.20491	-242.45258	225.37527	8.19887	-176.76442	-263.22443	36.25521	395.78851	146.56024	33.21055	411.72147	2.90293	1125.26587	-642.18329	-30.57444	579.02679	-357.23962	125.13332	579.55841	-335.21338	-153.15106	588.94580	579.34589	-3.16569	580.53119	600.12604	
2660	26.590	-173.37961	7.06161	-242.53162	225.12320	8.04625	-176.85574	-263.15210	36.11575	396.26218	146.31943	33.33584	411.59717	2.73361	1124.57104	-642.92700	-30.79070	578.78302	-357.39728	125.16631	579.27777	-335.28409	-152.97516	589.28925	579.22406	-3.21116	580.84991	599.85590	
